<svg id="Layer_1" data-name="Layer 1" xmlns="http://www.w3.org/2000/svg" viewBox="0 0 408.79 408.79"><defs><style>.cls-1{fill:#4285f4;}.cls-2{fill:#34a853;}.cls-3{fill:#fbbc05;}.cls-4{fill:#ea4335;}.cls-5{fill:none;}</style></defs><title>Obszar roboczy 1icongoogle</title><g id="Google-Button"><g id="btn_google_light_normal" data-name="btn google light normal"><g id="logo_googleg_48dp" data-name="logo googleg 48dp"><path id="Shape" class="cls-1" d="M291.83,206.46a104.84,104.84,0,0,0-1.66-18.63H204.39v35.23h49a41.9,41.9,0,0,1-18.17,27.49v22.86h29.43c17.22-15.86,27.16-39.21,27.16-67Z"/><path id="Shape-2" class="cls-2" d="M204.39,295.47c24.6,0,45.21-8.15,60.28-22.06l-29.43-22.86c-8.16,5.47-18.59,8.7-30.85,8.7-23.72,0-43.8-16-51-37.55H123v23.6A91.06,91.06,0,0,0,204.39,295.47Z"/><path id="Shape-3" class="cls-3" d="M153.43,221.7a54,54,0,0,1,0-34.61v-23.6H123a91.25,91.25,0,0,0,0,81.81l30.43-23.6Z"/><path id="Shape-4" class="cls-4" d="M204.39,149.54c13.38,0,25.38,4.6,34.82,13.62L265.33,137c-15.77-14.7-36.39-23.72-60.94-23.72A91.07,91.07,0,0,0,123,163.49l30.43,23.6c7.16-21.53,27.24-37.55,51-37.55Z"/><path id="Shape-5" class="cls-5" d="M113.32,113.32H295.47V295.47H113.32Z"/></g></g></g></svg>