<svg xmlns="http://www.w3.org/2000/svg" viewBox="0 0 700 500"><defs><style>.cls-1{isolation:isolate;}.cls-2{fill:#3a5580;}.cls-3{fill:#5880c0;}.cls-4{fill:#dce7eb;}.cls-25,.cls-26,.cls-5{fill:#fff;}.cls-6{fill:#efb5a3;}.cls-7{fill:#ffd0c2;}.cls-8{fill:#cdd973;}.cls-9{fill:#494065;}.cls-10{fill:#751111;}.cls-11{fill:#1b2529;}.cls-12{fill:#eeeff7;}.cls-13{fill:#d3d3e3;}.cls-14{fill:#eb6c18;}.cls-15{fill:#0a5894;}.cls-16{fill:#002936;}.cls-17{fill:#f3eee0;}.cls-18{fill:#ebc052;}.cls-19{fill:#d9cfb1;}.cls-20{fill:#f3ecd9;}.cls-21{fill:#e8dfc6;}.cls-22{fill:#f5d998;}.cls-23{fill:#f5b92b;}.cls-24{fill:#eb8510;}.cls-25{opacity:0.1;}.cls-26{opacity:0.5;}.cls-27{fill:#da2d46;opacity:0.2;mix-blend-mode:multiply;}.cls-28,.cls-33{fill:#bd5713;}.cls-29{fill:#ccbf9d;}.cls-30{fill:#d73152;}.cls-31{fill:#e4eaed;}.cls-32{fill:#d3eafa;}.cls-33,.cls-34{opacity:0.6;}.cls-34{fill:#a92333;}.cls-35{fill:#ded9cd;}.cls-36{fill:#74a828;}.cls-37{fill:#9dd6eb;}</style></defs><title>Obszar roboczy 23books</title><g class="cls-1"><g id="Ńëîé_1" data-name="Ńëîé 1"><path class="cls-2" d="M142.21,183.73a37.11,37.11,0,0,1-14.87-26.24l-.29-2.73,2.62,0h.6c6.11,0,8.45-1.14,11.39-5.54l1.94-2.91,1.94,2.91c2.94,4.4,5.28,5.54,11.38,5.54h.6l2.63,0-.29,2.73A37.14,37.14,0,0,1,145,183.73l-1.39,1Z"/><path class="cls-3" d="M143.6,150.55c-3.56,5.33-6.78,6.66-13.95,6.58v.14a34.47,34.47,0,0,0,13.94,24.58,34.5,34.5,0,0,0,13.94-24.58v-.14C150.38,157.21,147.16,155.88,143.6,150.55Z"/><path class="cls-4" d="M143.48,150.72c-3.51,5.19-6.74,6.49-13.83,6.41v.14a32.5,32.5,0,0,0,1.49,7.32h12.33Z"/><path class="cls-4" d="M143.37,164.59v17.08l.23.18a34.79,34.79,0,0,0,12.45-17.26Z"/><rect class="cls-4" x="166.75" y="357.39" width="219.68" height="70" rx="4.55" ry="4.55"/><rect class="cls-5" x="178.13" y="368.21" width="14.8" height="9.11"/><rect class="cls-5" x="198.05" y="368.21" width="14.8" height="9.11"/><rect class="cls-5" x="217.97" y="368.21" width="14.8" height="9.11"/><rect class="cls-5" x="237.89" y="368.21" width="14.8" height="9.11"/><rect class="cls-5" x="257.81" y="368.21" width="14.8" height="9.11"/><rect class="cls-5" x="277.73" y="368.21" width="14.8" height="9.11"/><rect class="cls-5" x="297.64" y="368.21" width="14.8" height="9.11"/><rect class="cls-5" x="178.13" y="381.3" width="14.8" height="9.11"/><rect class="cls-5" x="198.05" y="381.3" width="14.8" height="9.11"/><rect class="cls-5" x="217.97" y="381.3" width="14.8" height="9.11"/><rect class="cls-5" x="237.89" y="381.3" width="14.8" height="9.11"/><rect class="cls-5" x="257.81" y="381.3" width="14.8" height="9.11"/><rect class="cls-5" x="277.73" y="381.3" width="14.8" height="9.11"/><rect class="cls-5" x="297.64" y="381.3" width="14.8" height="9.11"/><rect class="cls-5" x="178.13" y="394.39" width="14.8" height="9.11"/><rect class="cls-5" x="198.05" y="394.39" width="14.8" height="9.11"/><rect class="cls-5" x="217.97" y="394.39" width="14.8" height="9.11"/><rect class="cls-5" x="237.89" y="394.39" width="14.8" height="9.11"/><rect class="cls-5" x="257.81" y="394.39" width="14.8" height="9.11"/><rect class="cls-5" x="277.73" y="394.39" width="14.8" height="9.11"/><rect class="cls-5" x="297.64" y="394.39" width="14.8" height="9.11"/><rect class="cls-5" x="178.13" y="407.48" width="14.8" height="9.11"/><rect class="cls-5" x="198.05" y="407.48" width="14.8" height="9.11"/><rect class="cls-5" x="217.97" y="407.48" width="55.2" height="9.11"/><rect class="cls-5" x="277.73" y="407.48" width="14.8" height="9.11"/><rect class="cls-5" x="297.64" y="407.48" width="14.8" height="9.11"/><rect class="cls-5" x="324.39" y="368.21" width="9.68" height="9.11"/><rect class="cls-5" x="324.39" y="381.3" width="9.68" height="9.11"/><rect class="cls-5" x="324.39" y="394.39" width="9.68" height="9.11"/><rect class="cls-5" x="324.39" y="407.48" width="9.68" height="9.11"/><rect class="cls-5" x="338.05" y="368.21" width="9.68" height="9.11"/><rect class="cls-5" x="338.05" y="381.3" width="9.68" height="9.11"/><rect class="cls-5" x="338.05" y="394.39" width="9.68" height="9.11"/><rect class="cls-5" x="338.05" y="407.48" width="9.68" height="9.11"/><rect class="cls-5" x="351.71" y="368.21" width="9.68" height="9.11"/><rect class="cls-5" x="351.71" y="381.3" width="9.68" height="9.11"/><rect class="cls-5" x="351.71" y="394.39" width="9.68" height="9.11"/><rect class="cls-5" x="351.71" y="407.48" width="9.68" height="9.11"/><rect class="cls-5" x="365.37" y="368.21" width="9.67" height="9.11"/><rect class="cls-5" x="365.37" y="381.3" width="9.67" height="9.11"/><rect class="cls-5" x="365.37" y="394.39" width="9.67" height="9.11"/><rect class="cls-5" x="365.37" y="407.48" width="9.67" height="9.11"/><path class="cls-6" d="M291.09,433.54a4,4,0,0,0,1.14,2.85l1.41,2c1.84,2.1,3.05,4.63,4.76,6.8L303,457.26c0,1.74,0,5.07.18,7.47h28.62c.41-4.51.49-8.92,3.19-12.67,3-4.15,6.27-7.93,6.34-13.05.06-.29.11-.59.15-.88l-1.32-31.49c-.08-1.69-2.05-3-4.39-2.87l-.78,0c-2.35.11-4.19,1.56-4.11,3.25l1,25.05-.32-.27-1.51-35.56c-.08-1.69-2-3-4.39-2.86l-.77,0c-2.35.11-4.19,1.56-4.12,3.25l1.08,26.78-.21-.18-1.3-29.53c-.07-1.69-2-3-4.39-2.87l-.77,0c-2.35.1-4.19,1.56-4.11,3.24l1.23,28.26H312l-1.2-26.53c-.07-1.69-2-3-4.39-2.87l-.77,0c-2.35.1-4.19,1.56-4.11,3.24l1.27,28.25c.06,1.56.18,3.17.18,4.76,0,.63,0,1.24-.07,1.85a1.5,1.5,0,0,1-1.51,1.53,1.13,1.13,0,0,1-1.09-.64c-1.86-4.51-.72-17.05-7-17a3.1,3.1,0,0,0-3,3.14c0,.12,0,.24,0,.36s0,.22,0,.34Z"/><path class="cls-7" d="M293.63,415.89c1.58.48,1.85,2.48,1.87,4.15,0,2.17-.77,3.08-1.94,3.09H293a2.24,2.24,0,0,1-1.46-.53,4.93,4.93,0,0,1-1-3.14c0-1.61.37-3.24,1.69-3.45a2.34,2.34,0,0,1,.65-.12Z"/><polygon class="cls-3" points="333.09 470.33 302.09 470.65 302.39 500 333.4 500 333.09 470.33"/><path class="cls-7" d="M303.24,395.12a3.69,3.69,0,0,1,2.5-1.34h.2a4.94,4.94,0,0,1,2.72.83,3.85,3.85,0,0,1,.9,1.57,2.15,2.15,0,0,1,.11.71c0,1.44-1,4.55-3.69,4.55-2.5,0-3.33-2.22-3.33-4.55v-.12A3,3,0,0,1,303.24,395.12Z"/><path class="cls-7" d="M312.74,393.62a3.69,3.69,0,0,1,2.5-1.34h.2a4.94,4.94,0,0,1,2.72.83,3.85,3.85,0,0,1,.9,1.57,2.15,2.15,0,0,1,.11.71c0,1.44-1,4.55-3.69,4.55-2.5,0-3.33-2.22-3.33-4.55v-.12A3,3,0,0,1,312.74,393.62Z"/><path class="cls-7" d="M322.62,395.74a3.67,3.67,0,0,1,2.5-1.33h.19a4.92,4.92,0,0,1,2.72.83,4,4,0,0,1,.91,1.56,2.44,2.44,0,0,1,.1.71c0,1.44-1,4.55-3.68,4.55-2.51,0-3.33-2.22-3.33-4.54v-.13A3,3,0,0,1,322.62,395.74Z"/><path class="cls-7" d="M333.24,406.24a3.67,3.67,0,0,1,2.5-1.33h.2a4.94,4.94,0,0,1,2.72.83,3.88,3.88,0,0,1,.9,1.56,2.15,2.15,0,0,1,.11.71c0,1.44-1,4.55-3.69,4.55-2.5,0-3.33-2.22-3.33-4.54v-.13A3,3,0,0,1,333.24,406.24Z"/><rect class="cls-5" x="300.9" y="463.66" width="33.15" height="8.74" transform="matrix(1, -0.01, 0.01, 1, -4.86, 3.34)"/><path class="cls-8" d="M305.06,468.12a1.17,1.17,0,1,1-1.18-1.16A1.17,1.17,0,0,1,305.06,468.12Z"/><path class="cls-6" d="M262.59,439.54a4,4,0,0,1-1.14,2.85l-1.41,2c-1.83,2.1-3.05,4.63-4.76,6.8l-4.62,12.06c0,1.74,0,5.07-.18,7.47H221.86c-.41-4.51-.49-8.92-3.19-12.67-3-4.15-6.27-7.93-6.34-13.05-.05-.29-.11-.59-.15-.88l1.32-31.49c.08-1.69,2-3,4.39-2.87l.78,0c2.35.11,4.19,1.56,4.11,3.25l-1,25.05.32-.27,1.51-35.56c.08-1.69,2-3,4.39-2.86l.78,0c2.35.11,4.19,1.56,4.11,3.25l-1.08,26.78.21-.18,1.3-29.53c.07-1.69,2-3,4.39-2.87l.77,0c2.35.1,4.19,1.56,4.11,3.24l-1.23,28.26h.29l1.2-26.53c.07-1.69,2-3,4.39-2.87l.77,0c2.35.1,4.19,1.56,4.12,3.24l-1.28,28.25c-.06,1.56-.18,3.17-.18,4.76,0,.63.05,1.24.07,1.85a1.51,1.51,0,0,0,1.52,1.53,1.15,1.15,0,0,0,1.09-.64c1.85-4.51.71-17.05,7-17a3.1,3.1,0,0,1,3,3.14c0,.12,0,.24,0,.36s0,.22,0,.34Z"/><path class="cls-7" d="M260.05,421.89c-1.58.48-1.85,2.48-1.87,4.15,0,2.17.77,3.08,1.94,3.09h.54a2.24,2.24,0,0,0,1.46-.53,4.93,4.93,0,0,0,1-3.14c0-1.61-.37-3.24-1.69-3.45a2.41,2.41,0,0,0-.65-.12Z"/><polygon class="cls-3" points="220.35 500 251.35 500 251.59 476.65 220.59 476.33 220.35 500"/><path class="cls-7" d="M250.44,401.12a3.69,3.69,0,0,0-2.5-1.34h-.2a4.94,4.94,0,0,0-2.72.83,3.85,3.85,0,0,0-.9,1.57,2.15,2.15,0,0,0-.11.71c0,1.44,1,4.55,3.69,4.55,2.51,0,3.33-2.22,3.33-4.55v-.12A3,3,0,0,0,250.44,401.12Z"/><path class="cls-7" d="M240.94,399.62a3.69,3.69,0,0,0-2.5-1.34h-.2a4.94,4.94,0,0,0-2.72.83,3.85,3.85,0,0,0-.9,1.57,2.15,2.15,0,0,0-.11.71c0,1.44,1,4.55,3.69,4.55,2.51,0,3.33-2.22,3.33-4.55v-.12A3,3,0,0,0,240.94,399.62Z"/><path class="cls-7" d="M231.06,401.74a3.67,3.67,0,0,0-2.5-1.33h-.19a4.94,4.94,0,0,0-2.72.83,3.9,3.9,0,0,0-.91,1.56,2.44,2.44,0,0,0-.1.71c0,1.44,1,4.55,3.69,4.55,2.5,0,3.32-2.22,3.32-4.54v-.13A3,3,0,0,0,231.06,401.74Z"/><path class="cls-7" d="M220.44,412.24a3.67,3.67,0,0,0-2.5-1.33h-.2a4.94,4.94,0,0,0-2.72.83,3.88,3.88,0,0,0-.9,1.56,2.15,2.15,0,0,0-.11.71c0,1.44,1,4.55,3.69,4.55,2.51,0,3.33-2.22,3.33-4.54v-.13A3,3,0,0,0,220.44,412.24Z"/><rect class="cls-5" x="231.84" y="457.45" width="8.74" height="33.15" transform="translate(-240.26 705.28) rotate(-89.4)"/><path class="cls-8" d="M248.62,474.12A1.17,1.17,0,1,0,249.8,473,1.17,1.17,0,0,0,248.62,474.12Z"/><path class="cls-4" d="M453.89,277.54a19.81,19.81,0,0,1-19.8,19.8H207.33a19.8,19.8,0,0,1-19.79-19.8V108.37a19.79,19.79,0,0,1,19.79-19.79H434.09a19.79,19.79,0,0,1,19.8,19.79Z"/><rect class="cls-3" x="201.94" y="128.17" width="237.56" height="154.78"/><path class="cls-9" d="M410.7,109.27a4.5,4.5,0,1,1-4.51-4.5A4.51,4.51,0,0,1,410.7,109.27Z"/><path class="cls-9" d="M424.2,109.27a4.5,4.5,0,1,1-4.51-4.5A4.51,4.51,0,0,1,424.2,109.27Z"/><path class="cls-9" d="M437.69,109.27a4.5,4.5,0,1,1-4.5-4.5A4.5,4.5,0,0,1,437.69,109.27Z"/><path class="cls-4" d="M259.66,115.84a44,44,0,1,1-44-44A44,44,0,0,1,259.66,115.84Z"/><path class="cls-3" d="M193.32,138.84a31.34,31.34,0,0,1-9.59-22.69,31.64,31.64,0,1,1,53.68,22.69l-1.36-1.4a29.68,29.68,0,1,0-41.38,0Z"/><path class="cls-9" d="M215.36,161.63a45.48,45.48,0,1,1,45.48-45.48A45.53,45.53,0,0,1,215.36,161.63Zm0-87.7a42.23,42.23,0,1,0,42.23,42.22A42.28,42.28,0,0,0,215.36,73.93Z"/><path class="cls-3" d="M185.86,107.79l-6-1.6-.23.85,6,1.6C185.7,108.36,185.79,108.08,185.86,107.79Z"/><path class="cls-3" d="M200.41,89.38,197.31,84l-.76.44,3.1,5.37Z"/><path class="cls-3" d="M207.85,86.42l-1.6-6-.85.23,1.6,6Z"/><path class="cls-3" d="M194,94.17l-4.4-4.4-.62.63,4.4,4.39C193.58,94.58,193.79,94.37,194,94.17Z"/><path class="cls-3" d="M215.36,85.49l.88,0V79.29h-1.76v6.22Z"/><path class="cls-3" d="M223.72,86.65l1.61-6-.85-.23-1.61,6Z"/><path class="cls-3" d="M242.35,101.59l5.38-3.11L246.85,97l-5.38,3.11C241.77,100.57,242.07,101.07,242.35,101.59Z"/><path class="cls-3" d="M245.09,108.64l6-1.6-.23-.85-6,1.6C244.94,108.08,245,108.36,245.09,108.64Z"/><path class="cls-3" d="M237.35,94.79l4.39-4.4-.62-.62-4.4,4.4C236.94,94.37,237.14,94.58,237.35,94.79Z"/><path class="cls-3" d="M184.7,116.15c0-.14,0-.29,0-.44H178.5v.88h6.21C184.71,116.45,184.7,116.3,184.7,116.15Z"/><path class="cls-3" d="M231.07,89.82l3.11-5.38-.77-.44-3.1,5.38Z"/><path class="cls-3" d="M189.26,100.07,183.87,97,183,98.48l5.39,3.11C188.65,101.07,189,100.57,189.26,100.07Z"/><path class="cls-3" d="M185.63,123.67l-6,1.6.23.85,6-1.61C185.79,124.23,185.7,124,185.63,123.67Z"/><path class="cls-3" d="M236.73,138.14l4.39,4.39.62-.62-4.39-4.39Z"/><path class="cls-3" d="M246,115.71c0,.15,0,.3,0,.44s0,.3,0,.44h6.22v-.88Z"/><path class="cls-3" d="M244.86,124.51l6,1.61.23-.85-6-1.61Z"/><path class="cls-3" d="M241.47,132.24l5.38,3.11.88-1.52-5.38-3.11C242.07,131.23,241.77,131.74,241.47,132.24Z"/><path class="cls-3" d="M193.38,137.52l-4.4,4.39.62.62,4.4-4.39Z"/><path class="cls-3" d="M188.38,130.72,183,133.83l.88,1.52,5.39-3.11C189,131.74,188.65,131.24,188.38,130.72Z"/><path class="cls-10" d="M216.74,111.85l-1.58-21-1.6,21.19a5,5,0,1,0,3.18-.2Z"/><polygon class="cls-4" points="346.87 249.16 325.92 196.58 304.95 226.42 283.65 215.77 262.29 246.98 240.84 232.14 219.47 249.07 218.71 248.11 240.79 230.62 261.97 245.28 283.24 214.2 304.56 224.86 326.22 194.03 347.08 246.39 368.49 210.04 389.81 223.16 422.79 162.87 423.87 163.43 390.21 224.84 368.91 211.73 346.87 249.16"/><path class="cls-11" d="M222.78,248.59a3.69,3.69,0,1,1-3.69-3.69A3.69,3.69,0,0,1,222.78,248.59Z"/><path class="cls-11" d="M244.51,231.38a3.69,3.69,0,1,1-3.69-3.69A3.69,3.69,0,0,1,244.51,231.38Z"/><path class="cls-11" d="M265.82,246.13a3.69,3.69,0,1,1-3.69-3.69A3.69,3.69,0,0,1,265.82,246.13Z"/><path class="cls-11" d="M287.13,215a3.69,3.69,0,1,1-3.69-3.69A3.69,3.69,0,0,1,287.13,215Z"/><path class="cls-11" d="M308.45,225.64a3.69,3.69,0,1,1-3.69-3.69A3.69,3.69,0,0,1,308.45,225.64Z"/><path class="cls-11" d="M329.76,195.31a3.69,3.69,0,1,1-3.69-3.69A3.69,3.69,0,0,1,329.76,195.31Z"/><path class="cls-11" d="M350.67,247.77a3.69,3.69,0,1,1-3.7-3.69A3.7,3.7,0,0,1,350.67,247.77Z"/><path class="cls-11" d="M372.39,210.88a3.69,3.69,0,1,1-3.69-3.69A3.69,3.69,0,0,1,372.39,210.88Z"/><path class="cls-11" d="M393.7,224a3.69,3.69,0,1,1-3.69-3.69A3.69,3.69,0,0,1,393.7,224Z"/><path class="cls-11" d="M426.93,163.43a3.69,3.69,0,1,1-3.69-3.69A3.69,3.69,0,0,1,426.93,163.43Z"/><path class="cls-5" d="M310.83,197.34l-10.3-10.92H280.38a5.22,5.22,0,0,1-5.21-5.21V169.62a5.22,5.22,0,0,1,5.21-5.21H311a5.21,5.21,0,0,1,5.2,5.21v11.59a5.21,5.21,0,0,1-5.2,5.21h-.18Zm-30.45-31.62a3.91,3.91,0,0,0-3.91,3.9v11.59a3.91,3.91,0,0,0,3.91,3.9H301.1l8.43,8.95v-8.95H311a3.91,3.91,0,0,0,3.9-3.9V169.62a3.91,3.91,0,0,0-3.9-3.9Z"/><rect class="cls-5" x="281.68" y="169.62" width="13.67" height="1.3"/><rect class="cls-5" x="281.68" y="172.88" width="9.76" height="1.3"/><rect class="cls-5" x="293.07" y="172.88" width="15.95" height="1.3"/><polygon class="cls-5" points="299.91 179.39 293.07 179.39 281.68 179.39 281.68 180.69 293.07 180.69 299.91 180.69 309.02 180.69 309.02 179.39 299.91 179.39"/><rect class="cls-5" x="281.68" y="176.13" width="9.76" height="1.3"/><rect class="cls-5" x="304.79" y="176.13" width="4.23" height="1.3"/><rect class="cls-5" x="293.4" y="176.13" width="9.76" height="1.3"/><rect class="cls-5" x="297.3" y="169.62" width="7.16" height="1.3"/><path class="cls-4" d="M323.63,177.15l10.3-10.92h20.16a5.21,5.21,0,0,0,5.2-5.21V149.43a5.2,5.2,0,0,0-5.2-5.2H323.46a5.21,5.21,0,0,0-5.21,5.2V161a5.22,5.22,0,0,0,5.21,5.21h.17Zm30.46-31.62a3.91,3.91,0,0,1,3.9,3.9V161a3.91,3.91,0,0,1-3.9,3.9H333.37l-8.43,9v-9h-1.48a3.91,3.91,0,0,1-3.91-3.9V149.43a3.91,3.91,0,0,1,3.91-3.9Z"/><rect class="cls-4" x="339.12" y="149.43" width="13.67" height="1.3"/><rect class="cls-4" x="343.02" y="152.69" width="9.76" height="1.3"/><rect class="cls-4" x="325.45" y="152.69" width="15.95" height="1.3"/><polygon class="cls-4" points="334.56 159.2 341.39 159.2 352.79 159.2 352.79 160.5 341.39 160.5 334.56 160.5 325.45 160.5 325.45 159.2 334.56 159.2"/><rect class="cls-4" x="343.02" y="155.94" width="9.76" height="1.3"/><rect class="cls-4" x="325.45" y="155.94" width="4.23" height="1.3"/><rect class="cls-4" x="331.3" y="155.94" width="9.76" height="1.3"/><rect class="cls-4" x="330" y="149.43" width="7.16" height="1.3"/><path class="cls-5" d="M420.3,230.63h-7.13L410.94,239h-33.1a.68.68,0,0,0-.28,0,.83.83,0,0,0-.51,1.06l6.06,17.29h24.65l6.7-25.09h5.84a.84.84,0,0,0,.83-.84A.83.83,0,0,0,420.3,230.63Zm-10.59,13h-3.59l.45-2.93h3.93Zm-1.11,4.18h-3.14l.52-3.34h3.51ZM407.48,252h-2.69l.53-3.35h3.06Zm-11.85,3.76-.73-2.93h4.54l.44,2.93Zm-5.85,0-.74-2.93h5l.73,2.93Zm-4.63-15.06.73,2.93H380l-1-2.93Zm5.86,0,.72,2.93h-5l-.73-2.93Zm2.63,7.11-.84-3.34h5.39l.5,3.34Zm5.17.84.51,3.35h-4.63l-.84-3.35Zm-6-.84h-5l-.84-3.34h5Zm6.25-3.34h6.1l-.52,3.34h-5.07Zm-.12-.84-.44-2.93h7.26l-.46,2.93Zm-.85,0H392.6l-.73-2.93h5.75Zm-12,.84.83,3.34h-5.41l-1.17-3.34Zm-4.29,4.18h5.34L388,252h-5Zm6.2,0h5l.84,3.35h-5Zm12.29,4.18h3.52l-.45,2.87s0,0,0,.06h-2.64Zm-.13-.83-.5-3.35h4.81L404,252Zm-16.9.83h4.92l.73,2.93h-4.62Zm20.94,2.93.46-2.93h2.6l-.78,2.93Z"/><path class="cls-5" d="M403.36,258.23a3.76,3.76,0,0,0-3.67,2.93h-8.56a3.78,3.78,0,1,0,.09.84h8.37a3.77,3.77,0,1,0,3.77-3.77Zm-15.9,5.85a2.09,2.09,0,1,1,2.09-2.08A2.09,2.09,0,0,1,387.46,264.08Zm15.9,0a2.09,2.09,0,1,1,2.09-2.08A2.09,2.09,0,0,1,403.36,264.08Z"/><path class="cls-4" d="M315.21,248.84l.39-2.48-2-.3a7.24,7.24,0,0,0-.17-1.4l1.85-.72-.92-2.34-1.89.73a7.29,7.29,0,0,0-.83-1.09l1.28-1.61-2-1.57-1.3,1.63a7.07,7.07,0,0,0-1.24-.52l.32-2.08-2.49-.39-.33,2.11a8.23,8.23,0,0,0-1.31.16l-.78-2-2.34.91.78,2a8,8,0,0,0-1.06.77l-1.68-1.35-1.58,2,1.68,1.34a6.28,6.28,0,0,0-.54,1.21l-2.11-.33-.39,2.49,2.09.32a7.51,7.51,0,0,0,.13,1.34l-1.95.76.91,2.34,1.92-.74a7.89,7.89,0,0,0,.8,1.12l-1.28,1.58,2,1.58,1.24-1.56a7.42,7.42,0,0,0,1.28.59l-.3,1.94,2.49.38.29-1.91a6.74,6.74,0,0,0,1.43-.15l.7,1.8,2.34-.92-.69-1.79a7.34,7.34,0,0,0,1.16-.85l1.49,1.21,1.58-2-1.51-1.2a7.73,7.73,0,0,0,.57-1.32Zm-9.77,2.33a5,5,0,1,1,5.64-4.15A5,5,0,0,1,305.44,251.17Z"/><path class="cls-12" d="M544.63,194.88a10,10,0,0,0-4.22-1.71,14.91,14.91,0,0,0-26.56-7.47,9.58,9.58,0,0,0-12.56,7.91,9.94,9.94,0,0,0,2.9,19.43,6.11,6.11,0,0,0,.86.06h32.5a10.27,10.27,0,0,0,1.85.18,9.94,9.94,0,0,0,5.23-18.4Z"/><path class="cls-13" d="M515.51,188.33a9.17,9.17,0,0,0-3.47-.67c-4.59,0-8.31,3.28-8.31,7.32a6.78,6.78,0,0,0,.11,1.2C507.41,191.14,509.87,189.13,515.51,188.33Z"/><path class="cls-9" d="M572.44,146.47c11.22,3.68,18,13.77,15.16,22.5s-14.26,12.84-25.47,9.16l-1-.34-8.44,4.13c-2.52,1.27-4,.07-3.14-2.6l2.35-7.14c-6.5-5.21-6.95-10.89-5.08-16.58C549.71,146.86,561.22,142.79,572.44,146.47Zm3.92,20.7a2.81,2.81,0,1,0-1.79-3.55A2.82,2.82,0,0,0,576.36,167.17Zm-9.19-3a2.81,2.81,0,1,0-1.79-3.55A2.82,2.82,0,0,0,567.17,164.15Zm-9.19-3a2.81,2.81,0,1,0-1.79-3.55A2.81,2.81,0,0,0,558,161.14Z"/><path class="cls-14" d="M519.1,132.75c-11.22,3.68-18,13.76-15.17,22.5s14.27,12.84,25.48,9.16l1-.34,8.44,4.12c2.51,1.27,4,.08,3.13-2.59l-2.34-7.14c6.5-5.22,6.94-10.89,5.07-16.59C541.83,133.13,530.31,129.07,519.1,132.75Zm-3.92,20.69A2.81,2.81,0,1,1,517,149.9,2.81,2.81,0,0,1,515.18,153.44Zm9.19-3a2.81,2.81,0,1,1,1.79-3.55A2.83,2.83,0,0,1,524.37,150.43Zm9.18-3a2.81,2.81,0,1,1,1.8-3.55A2.81,2.81,0,0,1,533.55,147.41Z"/><circle class="cls-15" cx="503.49" cy="324.29" r="87.5"/><rect class="cls-16" x="476.16" y="271.45" width="61.26" height="103.03" rx="5.57" ry="5.57"/><rect class="cls-3" x="481.73" y="283.72" width="50.12" height="76.57"/><path class="cls-17" d="M524.11,329.73h-6.38l-1.58,5.93H492.7a.65.65,0,0,0-.2,0,.61.61,0,0,0-.37.76l4.29,12.25H513.9l4.74-17.78h5.47a.6.6,0,1,0,0-1.19Zm-8.83,9.19h-2.55l.32-2.07h2.78Zm-.79,3h-2.23l.37-2.38h2.49Zm-.79,3h-1.91l.38-2.37h2.16Zm-8.4,2.67-.52-2.08H508l.31,2.08Zm-4.15,0-.52-2.08h3.54l.52,2.08Zm-3.28-10.67.52,2.07h-4.13l-.73-2.07Zm4.15,0,.52,2.07H499l-.52-2.07Zm1.87,5-.59-2.38h3.81l.36,2.38Zm3.66.59.36,2.37h-3.28l-.59-2.37Zm-4.27-.59h-3.54l-.59-2.38h3.54Zm4.43-2.38H512l-.38,2.38h-3.59Zm-.09-.59-.31-2.07h5.15l-.33,2.07Zm-.6,0h-3.87l-.52-2.07h4.08Zm-8.48.59.59,2.38h-3.84l-.83-2.38Zm-3,3h3.78l.59,2.37h-3.54Zm4.39,0h3.54l.59,2.37h-3.54Zm8.71,3h2.5l-.32,2v0h-1.87Zm-.09-.59-.36-2.37h3.42l-.38,2.37Zm-12,.59H500l.52,2.08h-3.28Zm14.83,2.08.33-2.08h1.84l-.55,2.08Z"/><path class="cls-17" d="M510.78,349.3a2.66,2.66,0,0,0-2.6,2.07h-6.07a2.65,2.65,0,1,0,.07.59h5.93a2.67,2.67,0,1,0,2.67-2.66Zm-11.27,4.15A1.49,1.49,0,1,1,501,352,1.49,1.49,0,0,1,499.51,353.45Zm11.27,0a1.49,1.49,0,1,1,1.48-1.49A1.49,1.49,0,0,1,510.78,353.45Z"/><rect class="cls-18" x="486.73" y="292.13" width="39.18" height="7.84"/><rect class="cls-17" x="486.73" y="315.37" width="11.75" height="11.1"/><polygon class="cls-19" points="493.1 320.94 498.48 315.82 498.48 315.37 498.01 315.37 492.62 320.49 487.2 315.37 486.73 315.37 486.73 315.82 492.15 320.94 486.73 326.08 486.73 326.47 487.27 326.47 492.62 321.38 498.01 326.47 498.48 326.47 498.48 326.02 493.1 320.94"/><rect class="cls-17" x="500.44" y="315.37" width="11.75" height="11.1"/><polygon class="cls-19" points="506.81 320.94 512.19 315.82 512.19 315.37 511.72 315.37 506.33 320.49 500.92 315.37 500.44 315.37 500.44 315.82 505.86 320.94 500.44 326.08 500.44 326.47 500.98 326.47 506.33 321.38 511.72 326.47 512.19 326.47 512.19 326.02 506.81 320.94"/><rect class="cls-17" x="514.15" y="315.37" width="11.75" height="11.1"/><polygon class="cls-19" points="520.52 320.94 525.9 315.82 525.9 315.37 525.43 315.37 520.04 320.49 514.63 315.37 514.15 315.37 514.15 315.82 519.57 320.94 514.15 326.08 514.15 326.47 514.69 326.47 520.05 321.38 525.43 326.47 525.9 326.47 525.9 326.02 520.52 320.94"/><rect class="cls-17" x="486.73" y="302.67" width="11.75" height="11.1"/><polygon class="cls-19" points="493.1 308.23 498.48 303.12 498.48 302.67 498.01 302.67 492.62 307.79 487.2 302.67 486.73 302.67 486.73 303.12 492.15 308.24 486.73 313.38 486.73 313.77 487.27 313.77 492.62 308.69 498.01 313.77 498.48 313.77 498.48 313.32 493.1 308.23"/><rect class="cls-17" x="500.44" y="302.67" width="11.75" height="11.1"/><polygon class="cls-19" points="506.81 308.23 512.19 303.12 512.19 302.67 511.72 302.67 506.33 307.79 500.92 302.67 500.44 302.67 500.44 303.12 505.86 308.24 500.44 313.38 500.44 313.77 500.98 313.77 506.33 308.69 511.72 313.77 512.19 313.77 512.19 313.32 506.81 308.23"/><rect class="cls-17" x="514.15" y="302.67" width="11.75" height="11.1"/><polygon class="cls-19" points="520.52 308.23 525.9 303.12 525.9 302.67 525.43 302.67 520.04 307.79 514.63 302.67 514.15 302.67 514.15 303.12 519.57 308.24 514.15 313.38 514.15 313.77 514.69 313.77 520.05 308.69 525.43 313.77 525.9 313.77 525.9 313.32 520.52 308.23"/><polygon class="cls-20" points="529.14 330.06 562.26 366.9 562.29 366.83 572.01 363.59 566 356.9 557.46 347.4 567.34 338.52 529.12 329.93 529.14 330.06"/><polygon class="cls-21" points="558.03 376.15 562.26 366.9 529.14 330.06 533.6 368.85 543.48 359.96 552.02 369.47 558.03 376.15"/><path class="cls-22" d="M464.4,293.29a7,7,0,1,1-9.87-.83A7,7,0,0,1,464.4,293.29Z"/><path class="cls-23" d="M464.12,303.82a7.87,7.87,0,1,1,.94-11.08A7.86,7.86,0,0,1,464.12,303.82Zm-9-10.71a6.15,6.15,0,1,0,8.67.74A6.16,6.16,0,0,0,455.08,293.11Z"/><path class="cls-24" d="M458.62,295.73a1.53,1.53,0,0,0-1.19.33.74.74,0,0,0-.15,1.14c.75.89,2.62-1,3.89.51a1.7,1.7,0,0,1,0,2.33l.65.77-.6.5-.62-.74a3,3,0,0,1-1.76.52l-.11-.91a2.33,2.33,0,0,0,1.49-.47.79.79,0,0,0,.18-1.24c-.82-1-2.73.86-3.91-.54a1.66,1.66,0,0,1,0-2.23l-.64-.75.59-.5.63.74a2.27,2.27,0,0,1,1.57-.33Z"/><path class="cls-24" d="M478.78,271.31c-.58,5.17-4.5,9-8.77,8.5s-7.25-5.05-6.67-10.23,4.5-9,8.77-8.5S479.36,266.14,478.78,271.31Z"/><path class="cls-22" d="M476.71,271.1c-.52,4.63-4.13,8-8,7.59s-6.69-4.55-6.18-9.18,4.13-8,8-7.59S477.22,266.47,476.71,271.1Z"/><path class="cls-23" d="M474.31,277.89a7.58,7.58,0,0,1-5.77,1.84c-4.5-.5-7.68-5.14-7.1-10.34a10.22,10.22,0,0,1,3.44-6.67,7.58,7.58,0,0,1,5.77-1.84c4.5.5,7.68,5.14,7.1,10.34A10.24,10.24,0,0,1,474.31,277.89Zm-8.08-13.56a8.08,8.08,0,0,0-2.69,5.3c-.46,4,1.89,7.63,5.24,8a5.55,5.55,0,0,0,4.18-1.36,8.14,8.14,0,0,0,2.7-5.3c.45-4-1.9-7.64-5.25-8A5.56,5.56,0,0,0,466.23,264.33Z"/><path class="cls-24" d="M470.6,267.87a1.86,1.86,0,0,0-1.4-.56.91.91,0,0,0-1,1c.07,1.42,3.27,1,3.38,3.38a2.08,2.08,0,0,1-1.73,2.25l.05,1.22-1,0,0-1.18a3.67,3.67,0,0,1-2.09-.81l.58-.95a2.83,2.83,0,0,0,1.78.66c.77,0,1.13-.44,1.1-1.07-.07-1.57-3.28-1.19-3.38-3.42a2,2,0,0,1,1.66-2.15l-.05-1.21.94,0,.06,1.18a2.8,2.8,0,0,1,1.75.85Z"/><path class="cls-24" d="M484.75,291.84c-.53,4.75-4.14,8.25-8.05,7.82s-6.67-4.65-6.14-9.41,4.14-8.25,8.06-7.81S485.29,287.09,484.75,291.84Z"/><path class="cls-22" d="M482.85,291.65c-.48,4.25-3.79,7.37-7.4,7s-6.15-4.18-5.67-8.44,3.78-7.37,7.39-7S483.32,287.39,482.85,291.65Z"/><path class="cls-23" d="M480.65,297.88a7,7,0,0,1-5.31,1.7c-4.13-.46-7.06-4.73-6.52-9.5A9.39,9.39,0,0,1,472,284a7,7,0,0,1,5.31-1.7c4.13.46,7.06,4.73,6.53,9.5A9.4,9.4,0,0,1,480.65,297.88Zm-7.43-12.45a7.45,7.45,0,0,0-2.48,4.86c-.42,3.72,1.75,7,4.82,7.37a5.12,5.12,0,0,0,3.84-1.26,7.45,7.45,0,0,0,2.48-4.86c.42-3.72-1.74-7-4.81-7.36A5.08,5.08,0,0,0,473.22,285.43Z"/><path class="cls-24" d="M477.24,288.68a1.76,1.76,0,0,0-1.29-.52.84.84,0,0,0-.91.92c.06,1.3,3,.91,3.11,3.1a1.94,1.94,0,0,1-1.6,2.07l.05,1.12-.87,0-.05-1.09a3.33,3.33,0,0,1-1.91-.74l.52-.87a2.7,2.7,0,0,0,1.64.6c.71,0,1-.4,1-1-.06-1.43-3-1.09-3.1-3.14a1.84,1.84,0,0,1,1.52-2l-.05-1.11.87,0,.05,1.09a2.51,2.51,0,0,1,1.61.77Z"/><path class="cls-24" d="M499,273.47c-.53,4.75-4.14,8.25-8.06,7.81s-6.66-4.64-6.13-9.4,4.14-8.25,8.06-7.81S499.49,268.71,499,273.47Z"/><path class="cls-22" d="M497.05,273.27c-.48,4.26-3.79,7.38-7.39,7s-6.15-4.18-5.68-8.44,3.79-7.37,7.4-7S497.53,269,497.05,273.27Z"/><path class="cls-23" d="M494.85,279.51a7,7,0,0,1-5.3,1.7c-4.14-.46-7.06-4.73-6.53-9.5a9.4,9.4,0,0,1,3.16-6.14,7,7,0,0,1,5.31-1.69c4.13.46,7.06,4.72,6.52,9.5A9.38,9.38,0,0,1,494.85,279.51Zm-7.42-12.45a7.41,7.41,0,0,0-2.48,4.86c-.42,3.72,1.74,7,4.81,7.36A5,5,0,0,0,493.6,278a7.48,7.48,0,0,0,2.49-4.86c.41-3.72-1.75-7-4.82-7.37A5.07,5.07,0,0,0,487.43,267.06Z"/><path class="cls-24" d="M491.44,270.31a1.75,1.75,0,0,0-1.29-.52c-.58,0-.93.35-.9.91.06,1.31,3,.91,3.1,3.11a1.93,1.93,0,0,1-1.59,2.07l.05,1.12-.87,0-.05-1.09a3.43,3.43,0,0,1-1.92-.74l.53-.88a2.58,2.58,0,0,0,1.64.6c.7,0,1-.39,1-1-.07-1.43-3-1.09-3.11-3.14a1.85,1.85,0,0,1,1.53-2l-.05-1.11.86,0,.06,1.08a2.59,2.59,0,0,1,1.61.78Z"/><path class="cls-24" d="M469.79,308.07c3.16,1.34,4.82,4.53,3.71,7.14s-4.56,3.62-7.72,2.28-4.82-4.54-3.71-7.14S466.63,306.72,469.79,308.07Z"/><path class="cls-22" d="M470.2,307.5c2.83,1.2,4.29,4.11,3.27,6.51s-4.13,3.37-7,2.17-4.29-4.12-3.27-6.52S467.38,306.3,470.2,307.5Z"/><path class="cls-23" d="M472.78,316.08a6.36,6.36,0,0,1-6.54.74c-3.17-1.35-4.81-4.68-3.64-7.43a4.67,4.67,0,0,1,1.33-1.79,6.36,6.36,0,0,1,6.54-.74c3.17,1.35,4.81,4.68,3.64,7.42A4.7,4.7,0,0,1,472.78,316.08Zm-7.95-7.42a3.37,3.37,0,0,0-.95,1.27c-.87,2.05.43,4.56,2.9,5.61a5,5,0,0,0,5.1-.53,3.27,3.27,0,0,0,.95-1.27c.87-2-.43-4.55-2.9-5.6A5,5,0,0,0,464.83,308.66Z"/><path class="cls-24" d="M466.88,310.41a1.24,1.24,0,0,0-.62.78.6.6,0,0,0,.45.81c.9.22,1.24-1.88,2.77-1.5a1.38,1.38,0,0,1,1.09,1.52l.78.2-.15.6-.76-.19a2.43,2.43,0,0,1-.9,1.17l-.5-.54a1.88,1.88,0,0,0,.75-1c.13-.49-.06-.79-.46-.89-1-.25-1.37,1.84-2.8,1.49a1.34,1.34,0,0,1-1-1.46l-.78-.19.16-.6.75.18a1.81,1.81,0,0,1,.87-.95Z"/><path class="cls-25" d="M447.21,170.7a25.16,25.16,0,1,1-25.16-25.16A25.16,25.16,0,0,1,447.21,170.7Z"/><path class="cls-11" d="M443.3,149.68a30.09,30.09,0,1,0-3.2,45.17l17.37,17.53,4.83-4.79L445,190.16A30.12,30.12,0,0,0,443.3,149.68ZM404.71,188a24.27,24.27,0,1,1,34.32.13A24.31,24.31,0,0,1,404.71,188Z"/><path class="cls-14" d="M498.61,235.6a5.85,5.85,0,0,1,0,8.24l-4.14,4.1a5.82,5.82,0,0,1-8.24,0L448.61,210a5.84,5.84,0,0,1,0-8.24l4.14-4.1a5.85,5.85,0,0,1,8.24,0Z"/><path class="cls-26" d="M406.42,180.07a2.65,2.65,0,0,1-3.45-1.44,20.76,20.76,0,0,1,5.84-23.4,2.64,2.64,0,0,1,3.47,4,15.49,15.49,0,0,0-4.43,17.43A2.64,2.64,0,0,1,406.42,180.07Z"/><path class="cls-11" d="M494.94,231.91A14.92,14.92,0,0,1,492,236l-7,6.91a15.87,15.87,0,0,1-2.1,1.74l3.25,3.28a5.82,5.82,0,0,0,8.24,0l4.14-4.1a5.85,5.85,0,0,0,0-8.24Z"/><path class="cls-27" d="M496.43,246l-46.15-45.84-1.65,1.63a5.84,5.84,0,0,0,0,8.24l37.58,37.9a5.82,5.82,0,0,0,8.24,0Z"/><circle class="cls-15" cx="174.04" cy="269.39" r="65.03"/><path class="cls-28" d="M153.25,247.08c-.46,14.53-5,43.58-5,43.58h45.44s-4.14-29.05-5-43.58Z"/><path class="cls-29" d="M171,273.86c-5.89,0-10.67-8.35-10.67-18.61s4.78-18.61,10.67-18.61,10.66,8.35,10.66,18.61S176.83,273.86,171,273.86Zm0-36.76c-5.64,0-10.22,8.14-10.22,18.15s4.58,18.16,10.22,18.16,10.21-8.15,10.21-18.16S176.58,237.1,171,237.1Z"/><path class="cls-30" d="M148.25,290.66c1.59-16.42,7-26.87,5-43.58h35.44c-2,16.71,3.4,27.16,5,43.58Z"/><path class="cls-16" d="M175.07,248.59a1.19,1.19,0,0,1-.47,1.62l-9.38,5.19a1.19,1.19,0,0,1-1.61-.47l-9.52-17.2a1.19,1.19,0,0,1,.47-1.62l9.38-5.18a1.2,1.2,0,0,1,1.62.46Z"/><rect class="cls-17" x="159.12" y="234.79" width="10.72" height="16.38" transform="translate(-97.05 109.96) rotate(-28.95)"/><path class="cls-31" d="M162.16,233.33a.29.29,0,0,1-.12.4l-3.91,2.16a.29.29,0,0,1-.4-.11h0a.3.3,0,0,1,.12-.41l3.9-2.16a.3.3,0,0,1,.41.12Z"/><path class="cls-32" d="M168.75,250.38a1,1,0,1,0,1.41.41A1,1,0,0,0,168.75,250.38Zm.86,1.57a.74.74,0,0,1-1-.29.74.74,0,1,1,1.3-.72A.74.74,0,0,1,169.61,252Z"/><path class="cls-14" d="M188.54,248.43H153.39c1.59,15.93-3.59,26.25-5.14,42.23h45.44C192.14,274.68,187,264.36,188.54,248.43Z"/><polygon class="cls-33" points="159.26 247.08 153.25 247.08 153.25 248.44 160.02 248.44 159.26 247.08"/><polygon class="cls-33" points="174.24 247.08 174.99 248.44 188.65 248.44 188.65 247.08 174.24 247.08"/><path class="cls-34" d="M161.87,249.81a.91.91,0,1,1-.91-.91A.9.9,0,0,1,161.87,249.81Z"/><path class="cls-34" d="M181.84,249.81a.91.91,0,1,1-.91-.91A.9.9,0,0,1,181.84,249.81Z"/><path class="cls-35" d="M171,235.05c4.93,0,9.07,6.27,10,14.57a1.87,1.87,0,0,1,.42,0h0c-1-8.53-5.29-15-10.46-15s-9.53,6.51-10.48,15.1l.45.1C161.82,241.42,166,235.05,171,235.05Z"/><path class="cls-20" d="M220.13,243.36H203.58l-4.1,15.37H138.67v0a1.78,1.78,0,0,0-.51.06,1.54,1.54,0,0,0-.94,2l11.12,31.77h45.3l12.3-46.11h14.19a1.54,1.54,0,1,0,0-3.07Zm-22.9,23.82h-6.62l.85-5.38h7.2Zm-2,7.69H189.4l1-6.15h6.45Zm-2.05,7.68h-4.94l1-6.15h5.62Zm-21.77,6.92L170,284.09h8.34l.81,5.38Zm-10.76,0-1.35-5.38h9.18l1.34,5.38Zm-8.51-27.67,1.35,5.38H142.72l-1.88-5.38Zm10.76,0,1.35,5.38H155l-1.35-5.38Zm4.85,13.07-1.53-6.15h9.88l.92,6.15Zm9.5,1.53.92,6.15h-8.49l-1.54-6.15Zm-11.08-1.53H157l-1.54-6.15h9.17Zm11.48-6.15h11.21l-1,6.15h-9.31Zm-.23-1.54-.81-5.38h13.35l-.85,5.38Zm-1.55,0h-10l-1.34-5.38H175Zm-22,1.54,1.54,6.15h-10l-2.15-6.15ZM146,276.4h9.8l1.53,6.15H148.1Zm11.38,0h9.17l1.54,6.15h-9.17Zm22.58,7.69h6.48l-.84,5.26s0,.08,0,.12h-4.85Zm-.23-1.54-.93-6.15h8.85l-1,6.15Zm-31,1.54h9l1.34,5.38h-8.49Zm38.45,5.38.85-5.38h4.78l-1.44,5.38Z"/><path class="cls-20" d="M185.55,294.08a6.91,6.91,0,0,0-6.73,5.38H163.08a6.89,6.89,0,1,0,.18,1.53h15.37a6.92,6.92,0,1,0,6.92-6.91Zm-29.2,10.76a3.85,3.85,0,1,1,3.84-3.85A3.86,3.86,0,0,1,156.35,304.84Zm29.2,0a3.85,3.85,0,1,1,3.84-3.85A3.85,3.85,0,0,1,185.55,304.84Z"/><path class="cls-36" d="M196.31,246.2a6.47,6.47,0,1,1-6.47-6.46A6.47,6.47,0,0,1,196.31,246.2Z"/><path class="cls-20" d="M194,243.8l-.88-.86a.32.32,0,0,0-.44,0l-3.74,3.92-1.72-1.62a.31.31,0,0,0-.44,0l-.84.9a.3.3,0,0,0,0,.43l2.82,2.64a.27.27,0,0,0,.18.08.28.28,0,0,0,.29-.09l4.77-5A.31.31,0,0,0,194,243.8Z"/><path class="cls-4" d="M367.71,196.23a17.78,17.78,0,0,1,2.79.33,5.91,5.91,0,0,0,3.08-.18,67.3,67.3,0,0,0,6-3.67,1.35,1.35,0,0,0,.14-1.83l-.14-.23a1.35,1.35,0,0,0-1.69-.72l-4.07,2.5,0-.15,6-3.65a1.33,1.33,0,0,0,.14-1.83l-.14-.23a1.33,1.33,0,0,0-1.68-.72l-3.36,2.06,0-.1,4.09-2.5a1.34,1.34,0,0,0,.14-1.83l-.14-.23c-.43-.7-1.18-1-1.68-.71l-3.71,2.26-.05-.09,3-1.9a1.35,1.35,0,0,0,.14-1.83l-.14-.23c-.43-.7-1.18-1-1.69-.71l-3.9,2.45a.42.42,0,0,0-.14.06c-.17.1-.31.27-.48.37-1.69,1-2.19,1-2.71.08,0,0-.75-2.13-1.6-4.15a7.18,7.18,0,0,0-.5-1,5.82,5.82,0,0,0-2.09-2.25,2,2,0,0,0-1.45,0,1.64,1.64,0,0,0-.59,1,1.22,1.22,0,0,0,.19.72c.12.19.48.46.64.69a.75.75,0,0,0,.07.12l.51.89c2.08,3.51.07,7.82-1.42,8.69l0,0c-1.92,1.36-3,2-3.6,2.35l4.79,8.14s2.87-1.48,3-1.58A4.35,4.35,0,0,1,367.71,196.23Z"/><rect class="cls-10" x="357.41" y="189.89" width="2.93" height="10.42" transform="translate(-49.37 208.96) rotate(-30.48)"/><path class="cls-37" d="M609.68,288.42c0,12.9-10.8,23.35-24.12,23.35s-24.12-10.45-24.12-23.35,10.8-23.35,24.12-23.35S609.68,275.52,609.68,288.42Z"/><path class="cls-5" d="M609.89,288.23a24,24,0,0,0-18.16-23l0,0h0a25.49,25.49,0,0,0-4.82-.75,4.61,4.61,0,0,0-1-.12,4.69,4.69,0,0,0-.84.08c-13.1.24-23.71,10.53-24,23.27h-.07v1.09H561c.28,12.9,11.14,23.3,24.45,23.3h.51a24.84,24.84,0,0,0,7.1-1.18l0,0,0,0A23.94,23.94,0,0,0,609.89,288.23Zm-24.13,23.15c-2.63,0-5-2.77-6.71-7.13a55.27,55.27,0,0,1,6.25-.36v7.36h.81V303.9a53.52,53.52,0,0,1,6.45.45c-1.68,4.28-4,7-6.63,7Zm17.9-23.71a29.2,29.2,0,0,0-1.78-9.32,31,31,0,0,0,4.14-1.69,22.56,22.56,0,0,1,3.19,11Zm-.68,0H595.9a54.63,54.63,0,0,0-.61-7.72,47.2,47.2,0,0,0,6-1.4A28.83,28.83,0,0,1,603,287.67Zm-17.68,0h-8.87a55.1,55.1,0,0,1,.58-7.48,61.78,61.78,0,0,0,8.29.57Zm0,1.09v6.87a60.18,60.18,0,0,0-8.29.57,54.63,54.63,0,0,1-.58-7.44Zm.81,0h9.11a54.82,54.82,0,0,1-.59,7.57,61.33,61.33,0,0,0-8.52-.7Zm0-1.09v-6.92a61.35,61.35,0,0,0,8.52-.69,53.65,53.65,0,0,1,.59,7.61Zm9.08-8.39a39.27,39.27,0,0,0-1.66-6.54c1.45-.22,2.85-.49,4.18-.82a26.86,26.86,0,0,1,3.29,6A45.82,45.82,0,0,1,595.19,279.28Zm-.67.11a59.64,59.64,0,0,1-8.41.69v-6.76a56.75,56.75,0,0,0,6.76-.48A38.63,38.63,0,0,1,594.52,279.39Zm-8.41-6.74v-7.57l.67,0c2.29.57,4.33,3.18,5.84,7.08A56.67,56.67,0,0,1,586.11,272.65Zm-.81-7.57v7.57a53.61,53.61,0,0,1-6.3-.37c1.55-4,3.67-6.72,6-7.2Zm0,8.25v6.75a58.85,58.85,0,0,1-8.19-.56,38.07,38.07,0,0,1,1.65-6.58A57.75,57.75,0,0,0,585.3,273.33Zm-8.85,6.1A46.36,46.36,0,0,1,570,278a27,27,0,0,1,3.3-6,45.22,45.22,0,0,0,4.84.91A38.59,38.59,0,0,0,576.45,279.43Zm-.11.66a54.31,54.31,0,0,0-.58,7.58H568a28.73,28.73,0,0,1,1.72-9.06A46.8,46.8,0,0,0,576.34,280.09Zm-.58,8.67a55.28,55.28,0,0,0,.58,7.54,45.88,45.88,0,0,0-6.82,1.53,28.4,28.4,0,0,1-1.54-9.07Zm.69,8.2a38.8,38.8,0,0,0,1.69,6.72,45.34,45.34,0,0,0-5.18,1,28.06,28.06,0,0,1-3.22-6.2A45.94,45.94,0,0,1,576.45,297Zm.66-.1a60.42,60.42,0,0,1,8.19-.56v6.91a57,57,0,0,0-6.49.39A38.75,38.75,0,0,1,577.11,296.86Zm9,6.36v-6.91a58.21,58.21,0,0,1,8.41.68,37.49,37.49,0,0,1-1.71,6.71A53.61,53.61,0,0,0,586.11,303.22Zm9.08-6.12a45,45,0,0,1,6,1.43,27.94,27.94,0,0,1-3.21,6.16c-1.43-.36-3-.66-4.53-.9A38.63,38.63,0,0,0,595.19,297.1Zm.1-.67a53.8,53.8,0,0,0,.61-7.67H603a28.62,28.62,0,0,1-1.56,9.14A46,46,0,0,0,595.29,296.43Zm8.38-7.67h5.54a22.63,22.63,0,0,1-3.15,11,29.74,29.74,0,0,0-4-1.64A29.82,29.82,0,0,0,603.67,288.76Zm2-12.67a30.48,30.48,0,0,1-4,1.62,28,28,0,0,0-3.23-6c1-.26,1.87-.54,2.73-.86A23.28,23.28,0,0,1,605.67,276.09Zm-5.13-5.73a26.45,26.45,0,0,1-2.56.79,26.36,26.36,0,0,0-4.63-4.75A24,24,0,0,1,600.54,270.36Zm-9.1-4.53a25.61,25.61,0,0,1,5.83,5.5c-1.27.31-2.6.56-4,.76-.09-.22-.17-.45-.27-.67-1.21-2.92-2.68-5-4.3-6.12A22.53,22.53,0,0,1,591.44,265.83Zm-12.81,5.59c-.1.25-.21.52-.3.78a42.07,42.07,0,0,1-4.64-.85,25.87,25.87,0,0,1,5.91-5.57,25.33,25.33,0,0,1,3.5-.6C581.42,266.28,579.88,268.4,578.63,271.42Zm-5.65-.24c-.93-.25-1.82-.51-2.66-.82a24,24,0,0,1,7.39-4A26.49,26.49,0,0,0,573,271.18Zm-3.27-.31c.9.33,1.84.63,2.84.89a27.72,27.72,0,0,0-3.25,6,30.78,30.78,0,0,1-4.14-1.65A23.58,23.58,0,0,1,569.71,270.87Zm-4.9,5.83a31.36,31.36,0,0,0,4.25,1.71,29.71,29.71,0,0,0-1.75,9.26h-5.66A22.52,22.52,0,0,1,564.81,276.7Zm2.49,12.06a29.66,29.66,0,0,0,1.57,9.27,31.55,31.55,0,0,0-4.1,1.67,22.59,22.59,0,0,1-3.12-10.94Zm-2.18,11.52a29.73,29.73,0,0,1,4-1.61,28.47,28.47,0,0,0,3.17,6.19c-.87.24-1.7.5-2.49.79A23.64,23.64,0,0,1,565.12,300.28Zm7.56,5.16a25.93,25.93,0,0,0,3.79,4.24,24,24,0,0,1-6.09-3.53C571.12,305.89,571.88,305.66,572.68,305.44Zm5.6,4.88a25.82,25.82,0,0,1-4.9-5.06,45.34,45.34,0,0,1,5-.93l.25.63c1.29,3.11,2.87,5.26,4.62,6.33A24,24,0,0,1,578.28,310.32ZM593,305c.08-.17.14-.35.21-.52a41.69,41.69,0,0,1,4.34.85,25.68,25.68,0,0,1-4.8,5,24.35,24.35,0,0,1-4.2.93C590.25,310.09,591.78,308,593,305Zm5.25.51c.77.21,1.51.43,2.21.68a24,24,0,0,1-5.88,3.45A26.71,26.71,0,0,0,598.27,305.47Zm2.81.18c-.76-.28-1.56-.53-2.39-.77a28.51,28.51,0,0,0,3.16-6.14,29,29,0,0,1,3.86,1.58A23.77,23.77,0,0,1,601.08,305.65Z"/><path class="cls-10" d="M577.4,253.09a7.7,7.7,0,0,0-7.83,7.57c0,4.17,7.83,15.91,7.83,15.91s7.82-11.74,7.82-15.91A7.7,7.7,0,0,0,577.4,253.09Zm0,11.84a4.36,4.36,0,1,1,4.35-4.36A4.36,4.36,0,0,1,577.4,264.93Z"/></g></g></svg>